<mxfile host="app.diagrams.net" modified="2020-12-05T17:13:07.175Z" agent="5.0 (Windows)" etag="I3sXJ0imtBECY0bIZyb8" version="13.10.9" type="github">
  <diagram id="6a731a19-8d31-9384-78a2-239565b7b9f0" name="Page-1">
    <mxGraphModel dx="258" dy="201" grid="1" gridSize="10" guides="1" tooltips="1" connect="1" arrows="1" fold="1" page="1" pageScale="1" pageWidth="662" pageHeight="375" background="#ffffff" math="0" shadow="0">
      <root>
        <mxCell id="0" />
        <mxCell id="1" parent="0" />
        <mxCell id="1350" value="Hardware" style="ellipse;whiteSpace=wrap;html=1;shadow=0;fontFamily=Helvetica;fontSize=40;align=center;strokeWidth=3;strokeColor=none;fillColor=#F2E479;fontColor=#384023;gradientColor=#DBCF6E;fontStyle=0;perimeter=ellipsePerimeter;" parent="1" vertex="1">
          <mxGeometry x="206" y="131.75" width="290" height="121.25" as="geometry" />
        </mxCell>
        <mxCell id="iaC6b17GLmA-YWx4HKnk-1615" style="edgeStyle=none;rounded=0;sketch=1;fillWeight=0;hachureGap=4;hachureAngle=-41;jiggle=1;simplification=0;orthogonalLoop=1;jettySize=auto;html=1;exitX=0;exitY=0.75;exitDx=0;exitDy=0;entryX=1;entryY=0;entryDx=0;entryDy=0;startSize=5;endArrow=none;strokeColor=#384023;strokeWidth=3;fillColor=#b0e3e6;fontSize=35;fontColor=#384023;" parent="1" source="iaC6b17GLmA-YWx4HKnk-1555" target="1350" edge="1">
          <mxGeometry relative="1" as="geometry" />
        </mxCell>
        <mxCell id="iaC6b17GLmA-YWx4HKnk-1555" value="Woodworking" style="rounded=1;strokeWidth=3;shadow=0;html=1;fontSize=20;strokeColor=none;fontColor=#EEEEEE;arcSize=60;absoluteArcSize=0;perimeter=ellipsePerimeter;fillColor=#8C4942;gradientColor=#753D37;" parent="1" vertex="1">
          <mxGeometry x="473" y="118" width="150" height="40" as="geometry" />
        </mxCell>
        <mxCell id="iaC6b17GLmA-YWx4HKnk-1620" style="edgeStyle=none;rounded=0;sketch=1;fillWeight=0;hachureGap=4;hachureAngle=-41;jiggle=1;simplification=0;orthogonalLoop=1;jettySize=auto;html=1;exitX=1;exitY=0.5;exitDx=0;exitDy=0;startSize=5;endArrow=none;strokeColor=#384023;strokeWidth=3;fillColor=#b0e3e6;fontSize=35;fontColor=#384023;entryX=0.048;entryY=0.282;entryDx=0;entryDy=0;entryPerimeter=0;" parent="1" source="iaC6b17GLmA-YWx4HKnk-1567" target="1350" edge="1">
          <mxGeometry relative="1" as="geometry" />
        </mxCell>
        <mxCell id="iaC6b17GLmA-YWx4HKnk-1567" value="Rasbperry Pi" style="rounded=1;strokeWidth=3;shadow=0;html=1;fontSize=20;strokeColor=none;glass=0;perimeterSpacing=2;arcSize=60;fillOpacity=100;fontColor=#EEEEEE;absoluteArcSize=0;perimeter=ellipsePerimeter;fillColor=#8C4942;gradientColor=#753D37;" parent="1" vertex="1">
          <mxGeometry x="51" y="143" width="150" height="40" as="geometry" />
        </mxCell>
        <mxCell id="iaC6b17GLmA-YWx4HKnk-1618" style="edgeStyle=none;rounded=0;sketch=1;fillWeight=0;hachureGap=4;hachureAngle=-41;jiggle=1;simplification=0;orthogonalLoop=1;jettySize=auto;html=1;exitX=0;exitY=0.25;exitDx=0;exitDy=0;startSize=5;endArrow=none;strokeColor=#384023;strokeWidth=3;fillColor=#b0e3e6;fontSize=35;fontColor=#384023;" parent="1" source="iaC6b17GLmA-YWx4HKnk-1568" target="1350" edge="1">
          <mxGeometry relative="1" as="geometry" />
        </mxCell>
        <mxCell id="iaC6b17GLmA-YWx4HKnk-1568" value="Arduino" style="rounded=1;strokeWidth=3;shadow=0;html=1;fontSize=20;strokeColor=none;glass=0;perimeterSpacing=2;arcSize=60;fillOpacity=100;fontColor=#EEEEEE;absoluteArcSize=0;perimeter=ellipsePerimeter;fillColor=#8C4942;gradientColor=#753D37;" parent="1" vertex="1">
          <mxGeometry x="446" y="243" width="150" height="40" as="geometry" />
        </mxCell>
        <mxCell id="iaC6b17GLmA-YWx4HKnk-1613" style="edgeStyle=none;rounded=0;sketch=1;fillWeight=0;hachureGap=4;hachureAngle=-41;jiggle=1;simplification=0;orthogonalLoop=1;jettySize=auto;html=1;exitX=1;exitY=0.75;exitDx=0;exitDy=0;startSize=5;endArrow=none;strokeColor=#384023;strokeWidth=3;fillColor=#b0e3e6;fontSize=35;fontColor=#384023;" parent="1" source="iaC6b17GLmA-YWx4HKnk-1569" target="1350" edge="1">
          <mxGeometry relative="1" as="geometry" />
        </mxCell>
        <mxCell id="iaC6b17GLmA-YWx4HKnk-1569" value="Cameras" style="rounded=1;strokeWidth=3;shadow=0;html=1;fontSize=35;strokeColor=none;fillColor=#8C342A;glass=0;perimeterSpacing=2;arcSize=60;fillOpacity=100;fontColor=#EEEEEE;absoluteArcSize=0;gradientColor=#7D2F26;perimeter=ellipsePerimeter;" parent="1" vertex="1">
          <mxGeometry x="116" y="73" width="180" height="60" as="geometry" />
        </mxCell>
        <mxCell id="iaC6b17GLmA-YWx4HKnk-1619" style="edgeStyle=none;rounded=0;sketch=1;fillWeight=0;hachureGap=4;hachureAngle=-41;jiggle=1;simplification=0;orthogonalLoop=1;jettySize=auto;html=1;exitX=1;exitY=0.25;exitDx=0;exitDy=0;entryX=0.031;entryY=0.703;entryDx=0;entryDy=0;entryPerimeter=0;startSize=5;endArrow=none;strokeColor=#384023;strokeWidth=3;fillColor=#b0e3e6;fontSize=35;fontColor=#384023;" parent="1" source="iaC6b17GLmA-YWx4HKnk-1579" target="1350" edge="1">
          <mxGeometry relative="1" as="geometry" />
        </mxCell>
        <mxCell id="iaC6b17GLmA-YWx4HKnk-1579" value="Kinect" style="rounded=1;strokeWidth=3;shadow=0;html=1;fontSize=35;strokeColor=none;fillColor=#8C342A;glass=0;perimeterSpacing=2;arcSize=60;fillOpacity=100;fontColor=#EEEEEE;absoluteArcSize=0;gradientColor=#7D2F26;perimeter=ellipsePerimeter;" parent="1" vertex="1">
          <mxGeometry x="36" y="203" width="180" height="60" as="geometry" />
        </mxCell>
        <mxCell id="iaC6b17GLmA-YWx4HKnk-1614" style="edgeStyle=none;rounded=0;sketch=1;fillWeight=0;hachureGap=4;hachureAngle=-41;jiggle=1;simplification=0;orthogonalLoop=1;jettySize=auto;html=1;exitX=0;exitY=1;exitDx=0;exitDy=0;startSize=5;endArrow=none;strokeColor=#384023;strokeWidth=3;fillColor=#b0e3e6;fontSize=35;fontColor=#384023;" parent="1" source="iaC6b17GLmA-YWx4HKnk-1582" target="1350" edge="1">
          <mxGeometry relative="1" as="geometry" />
        </mxCell>
        <mxCell id="iaC6b17GLmA-YWx4HKnk-1582" value="Microphones" style="rounded=1;strokeWidth=3;shadow=0;fontSize=35;strokeColor=none;fillColor=#8C342A;glass=0;perimeterSpacing=2;arcSize=60;fillOpacity=100;labelBackgroundColor=none;labelBorderColor=none;html=1;fontFamily=Helvetica;absoluteArcSize=0;imageAspect=1;portConstraintRotation=0;container=0;comic=0;fontColor=#EEEEEE;gradientColor=#7D2F26;perimeter=ellipsePerimeter;" parent="1" vertex="1">
          <mxGeometry x="316" y="53" width="220" height="60" as="geometry" />
        </mxCell>
        <mxCell id="iaC6b17GLmA-YWx4HKnk-1622" style="edgeStyle=none;rounded=0;sketch=1;fillWeight=0;hachureGap=4;hachureAngle=-41;jiggle=1;simplification=0;orthogonalLoop=1;jettySize=auto;html=1;exitX=0.5;exitY=0;exitDx=0;exitDy=0;entryX=0.186;entryY=0.891;entryDx=0;entryDy=0;entryPerimeter=0;startSize=5;endArrow=none;strokeColor=#384023;strokeWidth=3;fillColor=#b0e3e6;fontSize=35;fontColor=#384023;" parent="1" source="iaC6b17GLmA-YWx4HKnk-1584" target="1350" edge="1">
          <mxGeometry relative="1" as="geometry" />
        </mxCell>
        <mxCell id="iaC6b17GLmA-YWx4HKnk-1584" value="Soldering" style="rounded=1;strokeWidth=3;shadow=0;html=1;fontSize=20;strokeColor=none;glass=0;perimeterSpacing=2;arcSize=60;fillOpacity=100;fontColor=#EEEEEE;absoluteArcSize=0;perimeter=ellipsePerimeter;fillColor=#8C4942;gradientColor=#753D37;" parent="1" vertex="1">
          <mxGeometry x="106" y="276" width="150" height="40" as="geometry" />
        </mxCell>
        <mxCell id="iaC6b17GLmA-YWx4HKnk-1616" style="edgeStyle=none;rounded=0;sketch=1;fillWeight=0;hachureGap=4;hachureAngle=-41;jiggle=1;simplification=0;orthogonalLoop=1;jettySize=auto;html=1;exitX=0;exitY=0.25;exitDx=0;exitDy=0;startSize=5;endArrow=none;strokeColor=#384023;strokeWidth=3;fillColor=#b0e3e6;fontSize=35;fontColor=#384023;" parent="1" source="iaC6b17GLmA-YWx4HKnk-1587" target="1350" edge="1">
          <mxGeometry relative="1" as="geometry" />
        </mxCell>
        <mxCell id="iaC6b17GLmA-YWx4HKnk-1587" value="Audio" style="rounded=1;strokeWidth=3;shadow=0;html=1;fontSize=20;glass=0;sketch=0;strokeColor=none;perimeterSpacing=2;arcSize=60;fillOpacity=100;fontColor=#EEEEEE;absoluteArcSize=0;perimeter=ellipsePerimeter;fillColor=#8C4942;gradientColor=#753D37;" parent="1" vertex="1">
          <mxGeometry x="496" y="193" width="130" height="40" as="geometry" />
        </mxCell>
        <mxCell id="iaC6b17GLmA-YWx4HKnk-1617" style="edgeStyle=none;rounded=0;sketch=1;fillWeight=0;hachureGap=4;hachureAngle=-41;jiggle=1;simplification=0;orthogonalLoop=1;jettySize=auto;html=1;exitX=0.5;exitY=0;exitDx=0;exitDy=0;startSize=5;endArrow=none;strokeColor=#384023;strokeWidth=3;fillColor=#b0e3e6;fontSize=35;fontColor=#384023;" parent="1" source="iaC6b17GLmA-YWx4HKnk-1588" edge="1">
          <mxGeometry relative="1" as="geometry">
            <mxPoint x="356" y="253" as="targetPoint" />
          </mxGeometry>
        </mxCell>
        <mxCell id="iaC6b17GLmA-YWx4HKnk-1588" value="Robots" style="rounded=1;strokeWidth=3;shadow=0;html=1;fontSize=35;strokeColor=none;fillColor=#8C342A;glass=0;perimeterSpacing=2;arcSize=60;fillOpacity=100;fontColor=#EEEEEE;absoluteArcSize=0;gradientColor=#7D2F26;perimeter=ellipsePerimeter;" parent="1" vertex="1">
          <mxGeometry x="256" y="263" width="180" height="60" as="geometry" />
        </mxCell>
      </root>
    </mxGraphModel>
  </diagram>
</mxfile>
